<svg width="32" height="32" viewBox="0 0 32 32" fill="none" xmlns="http://www.w3.org/2000/svg">
  <defs>
    <!-- Main gradient - pink to fuchsia to cyan (same as Logo) -->
    <linearGradient id="logoGradient" x1="0%" y1="100%" x2="100%" y2="0%">
      <stop offset="0%" stop-color="#F472B6"/>
      <stop offset="50%" stop-color="#E879F9"/>
      <stop offset="100%" stop-color="#22D3EE"/>
    </linearGradient>
    
    <!-- Thrust gradient (same as Logo) -->
    <linearGradient id="thrustGradient" x1="50%" y1="0%" x2="50%" y2="100%">
      <stop offset="0%" stop-color="#67E8F9"/>
      <stop offset="100%" stop-color="#F472B6" stop-opacity="0.3"/>
    </linearGradient>
    
    <!-- Background gradient -->
    <linearGradient id="bgGradient" x1="0%" y1="0%" x2="100%" y2="100%">
      <stop offset="0%" stop-color="#1e1b4b"/>
      <stop offset="100%" stop-color="#0f172a"/>
    </linearGradient>
    
    <!-- Glow filter (scaled for favicon) -->
    <filter id="glow" x="-20%" y="-20%" width="140%" height="140%">
      <feGaussianBlur stdDeviation="0.6" result="coloredBlur"/>
      <feMerge>
        <feMergeNode in="coloredBlur"/>
        <feMergeNode in="SourceGraphic"/>
      </feMerge>
    </filter>
  </defs>
  
  <!-- Circular background -->
  <circle cx="16" cy="16" r="15.5" fill="url(#bgGradient)"/>
  <circle cx="16" cy="16" r="15" stroke="url(#logoGradient)" stroke-width="0.5" fill="none" opacity="0.6"/>
  
  <!-- Rocket body (scaled to fit within circle) -->
  <path d="M16 4C16 4 12.5 8 12.5 14C12.5 17.5 13.5 20 14.5 22L16 24.5L17.5 22C18.5 20 19.5 17.5 19.5 14C19.5 8 16 4 16 4Z" fill="url(#logoGradient)" filter="url(#glow)"/>
  
  <!-- Left fin -->
  <path d="M12.5 16L9 20L12.5 19V16Z" fill="url(#logoGradient)" opacity="0.9"/>
  
  <!-- Right fin -->
  <path d="M19.5 16L23 20L19.5 19V16Z" fill="url(#logoGradient)" opacity="0.9"/>
  
  <!-- Rocket window/cockpit -->
  <circle cx="16" cy="12" r="2.2" fill="#0f172a" stroke="url(#logoGradient)" stroke-width="0.6"/>
  
  <!-- Inner window highlight -->
  <circle cx="16" cy="12" r="1.3" fill="url(#thrustGradient)" opacity="0.6"/>
  
  <!-- Thrust flames (contained within circle) -->
  <path d="M14.5 24.5C14.5 24.5 15.2 27 16 28.5C16.8 27 17.5 24.5 17.5 24.5C17 25.2 15 25.2 14.5 24.5Z" fill="url(#thrustGradient)" opacity="0.9"/>
  
  <!-- Secondary flame -->
  <path d="M15.2 24.5C15.2 24.5 15.6 26 16 27C16.4 26 16.8 24.5 16.8 24.5C16.4 25 15.6 25 15.2 24.5Z" fill="#67E8F9" opacity="0.7"/>
  
  <!-- Speed lines - left (within bounds) -->
  <line x1="10" y1="10" x2="7" y2="13" stroke="url(#logoGradient)" stroke-width="0.8" stroke-linecap="round" opacity="0.5"/>
  <line x1="9" y1="13" x2="6" y2="16" stroke="url(#logoGradient)" stroke-width="0.6" stroke-linecap="round" opacity="0.3"/>
  
  <!-- Speed lines - right (within bounds) -->
  <line x1="22" y1="10" x2="25" y2="13" stroke="url(#logoGradient)" stroke-width="0.8" stroke-linecap="round" opacity="0.5"/>
  <line x1="23" y1="13" x2="26" y2="16" stroke="url(#logoGradient)" stroke-width="0.6" stroke-linecap="round" opacity="0.3"/>
</svg>
